<svg xmlns="http://www.w3.org/2000/svg" viewBox="8 -4 1082 460" width="1082" height="460" font-family="Inter, -apple-system, sans-serif">
  <defs>
    <filter id="f2-ds" x="-6%" y="-14%" width="112%" height="136%">
      <feDropShadow dx="0" dy="1" stdDeviation="2" flood-color="#1a1a1a" flood-opacity="0.05"/>
    </filter>
    <marker id="f2-ar" viewBox="0 0 10 7" refX="9" refY="3.5" markerWidth="6" markerHeight="4.5" orient="auto">
      <polygon points="0 0.8,8 3.5,0 6.2" fill="#c0654a"/>
    </marker>
    <marker id="f2-ag" viewBox="0 0 10 7" refX="9" refY="3.5" markerWidth="6" markerHeight="4.5" orient="auto">
      <polygon points="0 0.8,8 3.5,0 6.2" fill="#c5bfb7"/>
    </marker>
    <filter id="f2-glow" x="-20%" y="-20%" width="140%" height="140%">
      <feDropShadow dx="0" dy="0" stdDeviation="3" flood-color="#c0654a" flood-opacity="0.12"/>
    </filter>
    <filter id="f2-glow2" x="-10%" y="-10%" width="120%" height="120%">
      <feDropShadow dx="0" dy="2" stdDeviation="6" flood-color="#c0654a" flood-opacity="0.18"/>
    </filter>
  </defs>

  <!-- Question pill -->
  <rect x="22" y="4" width="400" height="40" rx="20" fill="#c0654a" filter="url(#f2-ds)"/>
  <text x="222" y="30" text-anchor="middle" font-size="13" font-weight="500" fill="#fff">&#x201C;What did I change in retrieve.py this week?&#x201D;</text>

  <!-- Step 1 -->
  <path d="M 142,44 L 102,62" stroke="#c0654a" stroke-width="1.5" fill="none" marker-end="url(#f2-ar)"/>
  <circle cx="84" cy="70" r="12" fill="#c0654a"/>
  <text x="84" y="74" text-anchor="middle" font-size="10" font-weight="700" fill="#fff">1</text>
  <text x="102" y="74" font-size="12" font-weight="500" class="svg-text" fill="#444">Scope: this week (Mon &#x2013; Sun)</text>

  <path d="M 84,82 L 84,98" stroke="#c0654a" stroke-width="1.5" fill="none" marker-end="url(#f2-ar)"/>

  <!-- ACTIVITY TREE -->
  <rect x="28" y="100" width="606" height="338" rx="14" fill="none" stroke="#e0dbd4" stroke-width="1" stroke-dasharray="5,3" class="svg-line"/>
  <text x="48" y="118" font-size="10" font-weight="600" letter-spacing="0.8" class="svg-text-2" fill="#b5b0a8">ACTIVITY TREE</text>

  <!-- Level labels -->
  <text x="600" y="148" text-anchor="end" font-size="8.5" class="svg-text-2" fill="#c5bfb7" font-style="italic">days</text>
  <text x="600" y="206" text-anchor="end" font-size="8.5" class="svg-text-2" fill="#c5bfb7" font-style="italic">sessions</text>
  <text x="600" y="268" text-anchor="end" font-size="8.5" class="svg-text-2" fill="#c5bfb7" font-style="italic">apps</text>
  <text x="600" y="326" text-anchor="end" font-size="8.5" class="svg-text-2" fill="#c5bfb7" font-style="italic">locations</text>
  <text x="600" y="392" text-anchor="end" font-size="8.5" class="svg-text-2" fill="#c5bfb7" font-style="italic">file + actions</text>

  <!-- DAY ROW y=142 -->
  <circle cx="62" cy="142" r="11" class="svg-box" fill="#f5f1ec" stroke="#ddd" opacity="0.5"/>
  <text x="62" y="146" text-anchor="middle" font-size="9.5" fill="#bbb">M</text>

  <rect x="110" y="128" width="100" height="30" rx="8" class="svg-box-accent" fill="#fdf5f1" stroke="#c0654a" stroke-width="1.6" filter="url(#f2-glow)"/>
  <text x="160" y="148" text-anchor="middle" font-size="11" font-weight="600" fill="#c0654a">Tue 03-18</text>

  <circle cx="262" cy="142" r="11" class="svg-box" fill="#f5f1ec" stroke="#ddd" opacity="0.5"/>
  <text x="262" y="146" text-anchor="middle" font-size="9.5" fill="#bbb">W</text>

  <rect x="350" y="128" width="100" height="30" rx="8" class="svg-box-accent" fill="#fdf5f1" stroke="#c0654a" stroke-width="1.6" filter="url(#f2-glow)"/>
  <text x="400" y="148" text-anchor="middle" font-size="11" font-weight="600" fill="#c0654a">Thu 03-20</text>

  <circle cx="502" cy="142" r="11" class="svg-box" fill="#f5f1ec" stroke="#ddd" opacity="0.5"/>
  <text x="502" y="146" text-anchor="middle" font-size="9.5" fill="#bbb">F</text>
  <circle cx="534" cy="142" r="11" class="svg-box" fill="#f5f1ec" stroke="#ddd" opacity="0.5"/>
  <text x="534" y="146" text-anchor="middle" font-size="9.5" fill="#bbb">S</text>
  <circle cx="566" cy="142" r="11" class="svg-box" fill="#f5f1ec" stroke="#ddd" opacity="0.5"/>
  <text x="566" y="146" text-anchor="middle" font-size="9.5" fill="#bbb">S</text>

  <!-- SESSION ROW y=200 -->
  <path d="M 160,158 L 160,188" stroke="#c0654a" stroke-width="1.4" fill="none"/>
  <rect x="106" y="188" width="108" height="28" rx="7" class="svg-box-accent" fill="#fdf5f1" stroke="#c0654a" stroke-width="1.4" filter="url(#f2-glow)"/>
  <text x="160" y="207" text-anchor="middle" font-size="10.5" font-weight="500" fill="#c0654a">10:00 &#x2013; 12:30</text>

  <path d="M 400,158 L 400,188" stroke="#c0654a" stroke-width="1.4" fill="none"/>
  <rect x="346" y="188" width="108" height="28" rx="7" class="svg-box-accent" fill="#fdf5f1" stroke="#c0654a" stroke-width="1.4" filter="url(#f2-glow)"/>
  <text x="400" y="207" text-anchor="middle" font-size="10.5" font-weight="500" fill="#c0654a">14:00 &#x2013; 16:00</text>

  <!-- APP ROW y=262 -->
  <path d="M 134,216 C 128,232 118,248 112,254" class="svg-line" stroke="#d8d2ca" stroke-width="1" fill="none"/>
  <g opacity="0.42">
    <rect x="72" y="254" width="80" height="26" rx="7" class="svg-box" fill="#f5f1ec" stroke="#ddd" filter="url(#f2-ds)"/>
    <text x="112" y="271" text-anchor="middle" font-size="10.5" class="svg-text" fill="#999">Chrome</text>
  </g>

  <path d="M 186,216 C 192,232 202,248 208,254" stroke="#c0654a" stroke-width="1.4" fill="none"/>
  <rect x="168" y="254" width="80" height="26" rx="7" class="svg-box-accent" fill="#fdf5f1" stroke="#c0654a" stroke-width="1.4" filter="url(#f2-glow)"/>
  <text x="208" y="271" text-anchor="middle" font-size="10.5" font-weight="600" fill="#c0654a">Cursor</text>

  <path d="M 374,216 C 368,232 358,248 352,254" class="svg-line" stroke="#d8d2ca" stroke-width="1" fill="none"/>
  <g opacity="0.42">
    <rect x="312" y="254" width="80" height="26" rx="7" class="svg-box" fill="#f5f1ec" stroke="#ddd" filter="url(#f2-ds)"/>
    <text x="352" y="271" text-anchor="middle" font-size="10.5" class="svg-text" fill="#999">Slack</text>
  </g>

  <path d="M 426,216 C 432,232 444,248 450,254" stroke="#c0654a" stroke-width="1.4" fill="none"/>
  <rect x="410" y="254" width="80" height="26" rx="7" class="svg-box-accent" fill="#fdf5f1" stroke="#c0654a" stroke-width="1.4" filter="url(#f2-glow)"/>
  <text x="450" y="271" text-anchor="middle" font-size="10.5" font-weight="600" fill="#c0654a">Cursor</text>

  <!-- LOCATION ROW y=320 -->
  <path d="M 208,280 L 208,310" stroke="#c0654a" stroke-width="1.4" fill="none"/>
  <rect x="158" y="310" width="100" height="26" rx="7" class="svg-box-accent" fill="#fdf5f1" stroke="#c0654a" stroke-width="1.4" filter="url(#f2-glow)"/>
  <text x="208" y="327" text-anchor="middle" font-size="10.5" font-weight="600" fill="#c0654a">retrieve.py</text>

  <path d="M 440,280 C 434,294 424,306 418,310" stroke="#c0654a" stroke-width="1.4" fill="none"/>
  <rect x="368" y="310" width="100" height="26" rx="7" class="svg-box-accent" fill="#fdf5f1" stroke="#c0654a" stroke-width="1.4" filter="url(#f2-glow)"/>
  <text x="418" y="327" text-anchor="middle" font-size="10.5" font-weight="600" fill="#c0654a">retrieve.py</text>

  <path d="M 464,280 C 478,294 500,306 518,310" class="svg-line" stroke="#d8d2ca" stroke-width="1" fill="none"/>
  <g opacity="0.42">
    <rect x="486" y="310" width="72" height="26" rx="7" class="svg-box" fill="#f5f1ec" stroke="#ddd" filter="url(#f2-ds)"/>
    <text x="522" y="327" text-anchor="middle" font-size="10.5" class="svg-text" fill="#999">tree.py</text>
  </g>

  <!-- FILE CONTENT ROW -->
  <path d="M 208,336 L 208,356" stroke="#c0654a" stroke-width="1.4" fill="none"/>
  <rect x="144" y="356" width="128" height="54" rx="9" fill="#c0654a" filter="url(#f2-glow)"/>
  <line x1="158" y1="368" x2="194" y2="368" stroke="#fff" stroke-opacity="0.45" stroke-width="1.4" stroke-linecap="round"/>
  <line x1="158" y1="376" x2="212" y2="376" stroke="#fff" stroke-opacity="0.45" stroke-width="1.4" stroke-linecap="round"/>
  <line x1="158" y1="384" x2="182" y2="384" stroke="#fff" stroke-opacity="0.45" stroke-width="1.4" stroke-linecap="round"/>
  <text x="208" y="400" text-anchor="middle" font-size="8" font-weight="600" fill="#fff">file content</text>

  <path d="M 418,336 L 418,356" stroke="#c0654a" stroke-width="1.4" fill="none"/>
  <rect x="354" y="356" width="128" height="54" rx="9" fill="#c0654a" filter="url(#f2-glow)"/>
  <line x1="368" y1="368" x2="404" y2="368" stroke="#fff" stroke-opacity="0.45" stroke-width="1.4" stroke-linecap="round"/>
  <line x1="368" y1="376" x2="422" y2="376" stroke="#fff" stroke-opacity="0.45" stroke-width="1.4" stroke-linecap="round"/>
  <line x1="368" y1="384" x2="394" y2="384" stroke="#fff" stroke-opacity="0.45" stroke-width="1.4" stroke-linecap="round"/>
  <text x="418" y="400" text-anchor="middle" font-size="8" font-weight="600" fill="#fff">file content</text>

  <!-- RIGHT PANEL -->

  <!-- Step 2 -->
  <path d="M 645,142 L 634,142" stroke="#c0654a" stroke-width="1" fill="none" marker-end="url(#f2-ar)"/>
  <circle cx="656" cy="142" r="12" fill="#c0654a"/>
  <text x="656" y="146" text-anchor="middle" font-size="10" font-weight="700" fill="#fff">2</text>
  <text x="674" y="146" font-size="12" font-weight="500" class="svg-text" fill="#444">Select days</text>

  <!-- Step 3 -->
  <path d="M 645,266 L 634,266" stroke="#c0654a" stroke-width="1" fill="none" stroke-dasharray="3,2" marker-end="url(#f2-ar)"/>
  <circle cx="656" cy="266" r="12" fill="#c0654a"/>
  <text x="656" y="270" text-anchor="middle" font-size="10" font-weight="700" fill="#fff">3</text>
  <text x="674" y="270" font-size="12" font-weight="500" class="svg-text" fill="#444">Drill down</text>

  <!-- Step 4 -->
  <path d="M 645,382 L 634,382" stroke="#c0654a" stroke-width="1" fill="none" stroke-dasharray="3,2" marker-end="url(#f2-ar)"/>
  <circle cx="656" cy="382" r="12" fill="#c0654a"/>
  <text x="656" y="386" text-anchor="middle" font-size="10" font-weight="700" fill="#fff">4</text>
  <text x="674" y="386" font-size="12" font-weight="500" class="svg-text" fill="#444">Inspect</text>

  <!-- Dashed curve: step 4 to multi-modal -->
  <path d="M 676,372 C 744,368 774,296 796,218" stroke="#c0654a" stroke-width="1.2" fill="none" stroke-dasharray="4,3" marker-end="url(#f2-ar)"/>

  <!-- Step 5 -->
  <circle cx="810" cy="106" r="12" fill="#c0654a"/>
  <text x="810" y="110" text-anchor="middle" font-size="10" font-weight="700" fill="#fff">5</text>
  <text x="828" y="110" font-size="12" font-weight="500" class="svg-text" fill="#444">Multi-modal inspection</text>

  <!-- Multi-modal container -->
  <rect x="758" y="124" width="310" height="96" rx="14" class="svg-box" fill="#f7f3ee" stroke="#e0dbd4" filter="url(#f2-ds)"/>

  <!-- Card: file content -->
  <rect x="776" y="136" width="80" height="48" rx="6" fill="#c0654a" fill-opacity="0.08" stroke="#c0654a" stroke-width="0.8"/>
  <line x1="786" y1="149" x2="818" y2="149" stroke="#c0654a" stroke-opacity="0.4" stroke-width="1.1" stroke-linecap="round"/>
  <line x1="786" y1="156" x2="836" y2="156" stroke="#c0654a" stroke-opacity="0.4" stroke-width="1.1" stroke-linecap="round"/>
  <line x1="786" y1="163" x2="806" y2="163" stroke="#c0654a" stroke-opacity="0.4" stroke-width="1.1" stroke-linecap="round"/>
  <line x1="786" y1="170" x2="828" y2="170" stroke="#c0654a" stroke-opacity="0.4" stroke-width="1.1" stroke-linecap="round"/>
  <text x="816" y="180" text-anchor="middle" font-size="7.5" font-weight="600" fill="#c0654a">file content</text>

  <!-- Card: keystrokes -->
  <rect x="872" y="136" width="80" height="48" rx="6" fill="#e8e3dc" stroke="#d8d2ca"/>
  <circle cx="882" cy="143" r="1.5" fill="#d0cbc4"/>
  <circle cx="889" cy="143" r="1.5" fill="#d0cbc4"/>
  <line x1="882" y1="151" x2="914" y2="151" stroke="#d0cbc4" stroke-width="1" stroke-linecap="round"/>
  <line x1="882" y1="158" x2="930" y2="158" stroke="#d0cbc4" stroke-width="1" stroke-linecap="round"/>
  <line x1="882" y1="165" x2="902" y2="165" stroke="#d0cbc4" stroke-width="1" stroke-linecap="round"/>
  <text x="912" y="180" text-anchor="middle" font-size="7.5" class="svg-text-2" fill="#b5b0a8">keystrokes</text>

  <!-- Card: screenshot -->
  <rect x="968" y="136" width="80" height="48" rx="6" fill="#e8e3dc" stroke="#d8d2ca"/>
  <circle cx="978" cy="143" r="1.5" fill="#d0cbc4"/>
  <circle cx="985" cy="143" r="1.5" fill="#d0cbc4"/>
  <rect x="977" y="151" width="58" height="24" rx="3" fill="#d8d2ca" stroke="#d0cbc4" stroke-width="0.5"/>
  <line x1="1006" y1="157" x2="1006" y2="169" stroke="#c5bfb7" stroke-width="0.7"/>
  <line x1="1001" y1="163" x2="1011" y2="163" stroke="#c5bfb7" stroke-width="0.7"/>
  <text x="1008" y="180" text-anchor="middle" font-size="7.5" class="svg-text-2" fill="#b5b0a8">screenshot</text>

  <text x="913" y="212" text-anchor="middle" font-size="9" font-style="italic" class="svg-text-2" fill="#b5b0a8">file reading + keyboard / mouse / vision</text>

  <!-- Arrow to Answer -->
  <path d="M 913,218 L 913,238" stroke="#c0654a" stroke-width="1.5" fill="none" marker-end="url(#f2-ar)"/>

  <!-- Answer box -->
  <rect x="796" y="242" width="234" height="88" rx="14" fill="#c0654a" filter="url(#f2-glow2)"/>
  <text x="913" y="268" text-anchor="middle" font-size="13" font-weight="600" fill="#fff">Answer</text>
  <text x="913" y="288" text-anchor="middle" font-size="10" fill="#f5ddd3">Tue: refactored query logic</text>
  <text x="913" y="304" text-anchor="middle" font-size="10" fill="#f5ddd3">Thu: fixed evaluate parsing</text>
  <text x="913" y="322" text-anchor="middle" font-size="9" font-style="italic" fill="#f5ddd3">&#x2192; synthesized across 2 days</text>

  <!-- Summary box -->
  <rect x="760" y="356" width="306" height="50" rx="11" fill="none" stroke="#c0654a" stroke-width="1" stroke-dasharray="5,3"/>
  <text x="913" y="376" text-anchor="middle" font-size="11" font-weight="600" fill="#c0654a">Cross-Day, Multi-Level Retrieval</text>
  <text x="913" y="394" text-anchor="middle" font-size="9" class="svg-text-2" fill="#b5b0a8">multi-node selection &#xB7; file reading &#xB7; cross-day synthesis</text>
</svg>