<svg xmlns="http://www.w3.org/2000/svg" viewBox="0 0 700 296" width="700" height="296" font-family="Inter, -apple-system, sans-serif">
  <defs>
    <filter id="f3-ds" x="-6%" y="-14%" width="112%" height="136%">
      <feDropShadow dx="0" dy="1" stdDeviation="2" flood-color="#1a1a1a" flood-opacity="0.05"/>
    </filter>
    <clipPath id="f3-uc">
      <circle cx="56" cy="78" r="21"/>
    </clipPath>
    <marker id="f3-ag" viewBox="0 0 10 7" refX="9" refY="3.5" markerWidth="6" markerHeight="4.5" orient="auto">
      <polygon points="0 0.8,8 3.5,0 6.2" fill="#c5bfb7"/>
    </marker>
    <marker id="f3-ao" viewBox="0 0 10 7" refX="9" refY="3.5" markerWidth="6" markerHeight="4.5" orient="auto">
      <polygon points="0 0.8,8 3.5,0 6.2" fill="#c0654a"/>
    </marker>
  </defs>

  <circle cx="56" cy="78" r="23" fill="#f0ebe5" stroke="#d8d2ca" stroke-width="1.2" filter="url(#f3-ds)"/>
  <g clip-path="url(#f3-uc)">
    <circle cx="56" cy="68" r="7.5" fill="#d0cbc4"/>
    <ellipse cx="56" cy="90" rx="12" ry="10" fill="#d0cbc4"/>
  </g>
  <text x="56" y="114" text-anchor="middle" font-size="10" font-weight="600" class="svg-text" fill="#555">User</text>

  <rect x="112" y="6" width="486" height="154" rx="22" fill="#c0654a" opacity="0.018"/>
  <rect x="112" y="6" width="486" height="154" rx="22" fill="none" stroke="#e0dbd4" stroke-width="0.7" class="svg-line"/>
  <text x="128" y="22" font-size="9" font-weight="500" letter-spacing="0.5" class="svg-text-2" fill="#b5b0a8">Any Agent Framework</text>

  <rect x="138" y="36" width="178" height="56" rx="10" class="svg-box" fill="#fff" stroke="#e0dbd5" filter="url(#f3-ds)"/>
  <text x="227" y="60" text-anchor="middle" font-size="13" font-weight="600" class="svg-text" fill="#333">AI Agent</text>
  <text x="227" y="78" text-anchor="middle" font-size="8" class="svg-text-2" fill="#b5b0a8">Cursor &#xB7; Claude Code &#xB7; any harness</text>

  <path d="M 79,68 L 138,54" class="svg-line" stroke="#c5bfb7" stroke-width="1.3" fill="none" marker-end="url(#f3-ag)"/>
  <text x="102" y="53" font-size="8.5" class="svg-text-2" fill="#b5b0a8" transform="rotate(-14,102,53)">request</text>

  <path d="M 138,80 Q 106,96 79,88" class="svg-line" stroke="#c5bfb7" stroke-width="1.2" fill="none" marker-end="url(#f3-ag)" stroke-dasharray="4,2"/>
  <text x="102" y="102" font-size="8.5" class="svg-text-2" fill="#b5b0a8">response</text>

  <rect x="355" y="30" width="226" height="34" rx="7" class="svg-box" fill="#f7f3ee" stroke="#e5e0da" filter="url(#f3-ds)"/>
  <text x="468" y="45" text-anchor="middle" font-size="10.5" font-weight="500" class="svg-text" fill="#666">Tools &amp; Actions</text>
  <text x="468" y="58" text-anchor="middle" font-size="8.5" class="svg-text-2" fill="#b5b0a8">shell &#xB7; web &#xB7; files &#xB7; APIs</text>

  <rect x="355" y="70" width="226" height="34" rx="7" class="svg-box" fill="#f7f3ee" stroke="#e5e0da" filter="url(#f3-ds)"/>
  <text x="468" y="85" text-anchor="middle" font-size="10.5" font-weight="500" class="svg-text" fill="#666">Skills &amp; Workflows</text>
  <text x="468" y="98" text-anchor="middle" font-size="8.5" class="svg-text-2" fill="#b5b0a8">code &#xB7; search &#xB7; browser &#xB7; automation</text>

  <rect x="355" y="110" width="226" height="34" rx="7" class="svg-box" fill="#f7f3ee" stroke="#e5e0da" filter="url(#f3-ds)"/>
  <text x="468" y="125" text-anchor="middle" font-size="10.5" font-weight="500" class="svg-text" fill="#666">Knowledge &amp; Memory</text>
  <text x="468" y="138" text-anchor="middle" font-size="8.5" class="svg-text-2" fill="#b5b0a8">RAG &#xB7; docs &#xB7; embeddings &#xB7; history</text>

  <path d="M 316,50 L 355,47" class="svg-line" stroke="#d8d2ca" stroke-width="1" fill="none" marker-end="url(#f3-ag)"/>
  <path d="M 316,64 L 355,87" class="svg-line" stroke="#d8d2ca" stroke-width="1" fill="none" marker-end="url(#f3-ag)"/>
  <path d="M 316,78 Q 336,102 355,127" class="svg-line" stroke="#d8d2ca" stroke-width="1" fill="none" marker-end="url(#f3-ag)"/>

  <path d="M 56,114 Q 56,162 82,200" stroke="#c0654a" stroke-width="1.2" fill="none" stroke-dasharray="4,2" marker-end="url(#f3-ao)"/>
  <text x="70" y="158" font-size="8" fill="#c0654a">GUI</text>
  <text x="70" y="168" font-size="8" fill="#c0654a">activity</text>

  <rect x="38" y="192" width="440" height="100" rx="16" fill="#c0654a" opacity="0.04"/>
  <rect x="48" y="200" width="420" height="86" rx="12" class="svg-box-accent" fill="#fdf5f1" stroke="#c0654a" stroke-width="1.5" filter="url(#f3-ds)"/>
  <text x="88" y="230" font-size="14" font-weight="700" fill="#c0654a">CatchMe</text>
  <text x="88" y="252" font-size="10" class="svg-text-2" fill="#999">personal activity &#xB7; screenshots &#xB7; GUI context</text>
  <text x="88" y="274" font-size="8.5" font-style="italic" class="svg-text-2" fill="#b5b0a8">what the user was actually doing, reading, and writing</text>

  <path d="M 227,200 L 227,92" stroke="#c0654a" stroke-width="2" fill="none" marker-end="url(#f3-ao)"/>

  <rect x="176" y="166" width="106" height="18" rx="4" fill="#fdf5f1"/>
  <text x="229" y="179" text-anchor="middle" font-size="8.5" font-weight="600" fill="#c0654a">personal context</text>

  <rect x="500" y="214" width="186" height="68" rx="10" fill="none" stroke="#c0654a" stroke-width="1" stroke-dasharray="5,3"/>
  <text x="593" y="236" text-anchor="middle" font-size="10" font-weight="600" fill="#c0654a">The missing layer</text>
  <text x="593" y="252" text-anchor="middle" font-size="8.5" class="svg-text-2" fill="#b5b0a8">tools know what to do;</text>
  <text x="593" y="264" text-anchor="middle" font-size="8.5" class="svg-text-2" fill="#b5b0a8">knowledge knows what's true;</text>
  <text x="593" y="276" text-anchor="middle" font-size="8.5" class="svg-text-2" fill="#b5b0a8">only CatchMe knows what you do</text>
</svg>
